{"title":"Licence.to.Kill.1989.720p.BluRay","uid":7815724,"size":2832270938,"categoryP":"video","categoryS":"hd___movies","magnet":"?xt=urn:btih:47e78ff99bec577b719427bdbc0d6ef453a0be9d&amp;dn=Licence.to.Kill.1989.720p.BluRay&amp;tr=udp%3A%2F%2Ftracker.openbittorrent.com%3A80&amp;tr=udp%3A%2F%2Fopen.demonii.com%3A1337&amp;tr=udp%3A%2F%2Ftracker.coppersurfer.tk%3A6969&amp;tr=udp%3A%2F%2Fexodus.desync.com%3A6969","seeders":0,"leechers":0,"uploader":"saadyyk","files":4,"time":1352655503,"description":"Format                           : Matroska\nFile size                        : 2.64 GiB\nDuration                         : 2h 13mn\nOverall bit rate                 : 2 832 Kbps\n\n\nVideo\nFormat                           : AVC\nFormat/Info                      : Advanced Video Codec\nDuration                         : 2h 13mn\nBit rate                         : 2 446 Kbps\nWidth                            : 1 280 pixels\nHeight                           : 544 pixels\nDisplay aspect ratio             : 2.35:1\nStream size                      : 2.23 GiB (84%)\n\nAudio\nFormat                           : AC-3\nFormat/Info                      : Audio Coding 3\nCodec ID                         : A_AC3\nDuration                         : 2h 13mn\nBit rate                         : 384 Kbps\nChannel(s)                       : 6 channels\nChannel positions                : Front: L C R, Side: L R, LFE\nCompression mode                 : Lossy\nStream size                      : 366 MiB (14%)\nLanguage                         : English\n\nSubtitles                        : English","torrent":{"xt":"urn:btih:47e78ff99bec577b719427bdbc0d6ef453a0be9d","amp;dn":"Licence.to.Kill.1989.720p.BluRay","amp;tr":["udp%3A%2F%2Ftracker.openbittorrent.com%3A80","udp%3A%2F%2Fopen.demonii.com%3A1337","udp%3A%2F%2Ftracker.coppersurfer.tk%3A6969","udp%3A%2F%2Fexodus.desync.com%3A6969"],"infoHash":"47e78ff99bec577b719427bdbc0d6ef453a0be9d","infoHashBuffer":{"type":"Buffer","data":[71,231,143,249,155,236,87,123,113,148,39,189,188,13,110,244,83,160,190,157]},"announce":[],"urlList":[]}}